# xmcd CD database file
# Copyright (C) 1993-1998 Ti Kan
# 
# Track frame offsets:
#     182
#     14057
#     34907
#     46830
#     61532
#     72482
#     93032
#     110282
#     122282
#     132332
#     145157
#     157682
#     168032
#     184307
#     195557
#     205682
#     219782
#     232457
#     251245
#     265980
#     278920
#     294332
# 
# Disc length: 4197 seconds
# 
# Revision: 1
# Processed by: cddbd v1.4b41PL1 Copyright (c) Steve Scherf et al.
# Submitted via: DiscPlay 4.0.4
# 
DISCID=38106316
DTITLE=John Hammond - John Hammond
DYEAR=1900
DGENRE=
TTITLE0=My Babe
TTITLE1=Standing Around Crying
TTITLE2=Riding In The Moonlight
TTITLE3=Big 45
TTITLE4=Seventh Son
TTITLE5=Red Hot Kisses
TTITLE6=Help Me
TTITLE7=It Hurts Me Too
TTITLE8=Give Me a 32-20
TTITLE9=You'll Miss Me
TTITLE10=Mr. Luck
TTITLE11=Hot Tamales
TTITLE12=You Don't Love Me
TTITLE13=Step It Up And Go
TTITLE14=Fattening Frogs For Snakes
TTITLE15=Gypsy Woman
TTITLE16=My Baby Left Me
TTITLE17=Louisiana Blues
TTITLE18=Mellow Down Easy
TTITLE19=Your Funeral And My Trial
TTITLE20=Mellow Peaches
TTITLE21=Gone So Long
EXTD=
EXTT0=
EXTT1=
EXTT2=
EXTT3=
EXTT4=
EXTT5=
EXTT6=
EXTT7=
EXTT8=
EXTT9=
EXTT10=
EXTT11=
EXTT12=
EXTT13=
EXTT14=
EXTT15=
EXTT16=
EXTT17=
EXTT18=
EXTT19=
EXTT20=
EXTT21=
PLAYORDER=
